#!OML:ASF X:\für Bonn\!DataBase\2005_08_11_Bastian_Final\c3d\Bastian.ASF
:FULLY-SPECIFIED
:DEGREES
290
root -0.293496 2.7111 19.1472 -614.099 1.466 -167.648
lowerback 61.7559 0.963074 16.7333
upperback 24.2978 -9.10841 6.57138
thorax 7.92045 -12.7033 1.81861
lowerneck -5.46647 -4.20699 -12.8079
upperneck -4.93627 -4.52278 8.34488
head -0.0840656 -1.94297 4.49995
rclavicle 2.44505e-014 -6.24184e-014
rhumerus -55.6536 41.3385 -106.144
rradius 39.773
rwrist -21.2521
rhand -32.9535 -13.1389
rfingers 7.12502
rthumb -6.16933 -43.0291
lclavicle 2.44505e-014 -6.24184e-014
lhumerus -30.8285 -6.03915 81.9446
lradius 30.1317
lwrist 44.4973
lhand -21.4029 -1.73625
lfingers 7.12502
lthumb 4.98536 28.1851
rfemur -57.2688 -64.0866 11.6904
rtibia 150.406
rfoot -15.9534 11.1141
rtoes -27.8397
lfemur -49.7798 10.6971 -20.4027
ltibia 75.9475
lfoot 7.33578 -5.04941
ltoes -10.7478
291
root -0.27211 2.6624 19.1725 -614.271 1.62385 -167.594
lowerback 61.7427 0.921133 16.6783
upperback 24.1612 -9.05539 6.55657
thorax 7.73826 -12.6477 1.8507
lowerneck -5.6419 -4.09334 -12.8278
upperneck -4.69527 -4.36188 8.42132
head 0.000878778 -1.86737 4.52563
rclavicle 4.4329e-014 1.25234e-014
rhumerus -56.3831 41.3404 -106.36
rradius 40.4763
rwrist -21.4393
rhand -33.0035 -13.2683
rfingers 7.12502
rthumb -6.21762 -43.157
lclavicle 4.4329e-014 1.25234e-014
lhumerus -31.4873 -6.8152 82.0282
lradius 30.9354
lwrist 45.3806
lhand -21.6119 -1.52294
lfingers 7.12502
lthumb 4.78355 28.4031
rfemur -58.6044 -63.8785 13.2344
rtibia 150.381
rfoot -14.975 11.1968
rtoes -26.9513
lfemur -48.9775 10.2247 -20.1329
ltibia 74.3345
lfoot 7.09853 -4.83698
ltoes -12.2981
292
root -0.250828 2.61102 19.1969 -614.41 1.79922 -167.53
lowerback 61.7003 0.903652 16.6273
upperback 24.0381 -8.98843 6.58032
thorax 7.57905 -12.5936 1.91168
lowerneck -5.83865 -3.99522 -12.8603
upperneck -4.49102 -4.21419 8.50678
head 0.0801581 -1.79537 4.55622
rclavicle 6.36111e-015 -8.26944e-014
rhumerus -57.0936 41.4818 -106.586
rradius 41.1513
rwrist -21.7202
rhand -33.054 -13.4109
rfingers 7.12502
rthumb -6.26636 -43.2982
lclavicle 6.36111e-015 -8.26944e-014
lhumerus -32.0854 -7.52331 82.1492
lradius 31.6872
lwrist 46.2352
lhand -21.8923 -1.47959
lfingers 7.12502
lthumb 4.51273 28.4523
rfemur -60.2359 -63.3679 15.0691
rtibia 150.377
rfoot -13.7898 11.2907
rtoes -25.8755
lfemur -48.2328 9.77805 -19.8563
ltibia 72.8217
lfoot 6.72796 -4.66936
ltoes -13.49
293
root -0.228837 2.55874 19.2205 -614.514 1.95264 -167.496
lowerback 61.7002 0.89861 16.5218
upperback 23.8743 -8.89644 6.58293
thorax 7.35945 -12.5188 1.98047
lowerneck -5.97451 -3.89047 -12.9111
upperneck -4.281 -4.06711 8.61098
head 0.152147 -1.72572 4.59682
rclavicle -1.07344e-014 1.35174e-014
rhumerus -57.8956 41.6421 -106.891
rradius 41.8539
rwrist -22.0429
rhand -33.0464 -13.556
rfingers 7.12502
rthumb -6.25899 -43.4436
lclavicle -1.07344e-014 1.35174e-014
lhumerus -32.7174 -7.90591 82.1714
lradius 32.3851
lwrist 46.7597
lhand -22.016 -1.42957
lfingers 7.12502
lthumb 4.39331 28.5049
rfemur -62.0648 -62.5968 17.043
rtibia 150.377
rfoot -12.437 11.3905
rtoes -24.6381
lfemur -47.5414 9.34826 -19.593
ltibia 71.4282
lfoot 6.34521 -4.42289
ltoes -13.5517
294
root -0.207955 2.5056 19.2414 -614.588 2.11282 -167.447
lowerback 61.6534 0.90103 16.436
upperback 23.7512 -8.8195 6.59075
thorax 7.19405 -12.4551 2.03575
lowerneck -6.19979 -3.7852 -12.9163
upperneck -4.07646 -3.90701 8.73673
head 0.23506 -1.64629 4.63627
rclavicle 3.55825e-014 -7.03698e-014
rhumerus -58.5578 41.7809 -107.101
rradius 42.5624
rwrist -22.3643
rhand -33.0572 -13.6826
rfingers 7.12502
rthumb -6.26943 -43.5698
lclavicle 3.55825e-014 -7.03698e-014
lhumerus -33.2322 -8.1872 82.1467
lradius 32.9964
lwrist 47.1292
lhand -22.1972 -1.43233
lfingers 7.12502
lthumb 4.21838 28.5056
rfemur -63.8855 -61.7384 18.9754
rtibia 150.39
rfoot -11.0553 11.5168
rtoes -23.9055
lfemur -46.9131 8.98903 -19.3599
ltibia 70.1654
lfoot 5.98918 -4.24031
ltoes -13.1597
295
root -0.186441 2.45097 19.2632 -614.651 2.23223 -167.42
lowerback 61.6479 0.91628 16.3266
upperback 23.6119 -8.72365 6.59595
thorax 7.00547 -12.3811 2.09959
lowerneck -6.40263 -3.70437 -12.9313
upperneck -3.90697 -3.77965 8.86766
head 0.307692 -1.58186 4.67895
rclavicle -9.74045e-015 1.33186e-014
rhumerus -59.1963 41.7977 -107.25
rradius 43.238
rwrist -22.5271
rhand -33.063 -13.7276
rfingers 7.12502
rthumb -6.27508 -43.6147
lclavicle -9.74045e-015 1.33186e-014
lhumerus -33.7631 -8.47744 82.1168
lradius 33.6491
lwrist 47.5391
lhand -22.3623 -1.43759
lfingers 7.12502
lthumb 4.05894 28.5035
rfemur -65.7588 -60.6799 20.8769
rtibia 150.395
rfoot -9.53102 11.6582
rtoes -22.6433
lfemur -46.3438 8.66979 -19.1992
ltibia 69.017
lfoot 5.73513 -4.0337
ltoes -12.6008
296
root -0.164721 2.39615 19.285 -614.683 2.36265 -167.383
lowerback 61.6219 0.924521 16.2026
upperback 23.4708 -8.64364 6.58959
thorax 6.81278 -12.3113 2.1609
lowerneck -6.57439 -3.6007 -12.9863
upperneck -3.75856 -3.62213 9.06332
head 0.36813 -1.5017 4.75027
rclavicle 3.96575e-014 -3.598e-014
rhumerus -59.8579 41.7339 -107.385
rradius 43.9511
rwrist -22.5352
rhand -33.0081 -13.9022
rfingers 7.12502
rthumb -6.22208 -43.7909
lclavicle 3.96575e-014 -3.598e-014
lhumerus -34.3453 -8.63155 82.0588
lradius 34.3104
lwrist 47.8205
lhand -22.5123 -1.4814
lfingers 7.12502
lthumb 3.91405 28.4624
rfemur -67.5911 -59.5444 22.7276
rtibia 150.357
rfoot -7.96698 11.8115
rtoes -21.3193
lfemur -45.8447 8.38383 -19.0451
ltibia 67.9683
lfoot 5.55534 -3.7969
ltoes -12.0698
297
root -0.142376 2.34174 19.3113 -614.695 2.48729 -167.375
lowerback 61.576 0.980478 16.0746
upperback 23.3595 -8.52874 6.60354
thorax 6.6573 -12.2308 2.2251
lowerneck -6.80375 -3.5221 -12.9916
upperneck -3.60767 -3.49259 9.22594
head 0.439554 -1.43346 4.80195
rclavicle 1.63003e-014 -6.63941e-014
rhumerus -60.3669 41.6256 -107.415
rradius 44.5979
rwrist -22.5402
rhand -32.9428 -13.9602
rfingers 7.12502
rthumb -6.15901 -43.8507
lclavicle 1.63003e-014 -6.63941e-014
lhumerus -34.8395 -8.75012 81.9879
lradius 34.9397
lwrist 47.9909
lhand -22.7058 -1.53399
lfingers 7.12502
lthumb 3.72722 28.4132
rfemur -69.4562 -58.1223 24.5929
rtibia 150.276
rfoot -6.33015 11.9148
rtoes -20.0571
lfemur -45.4183 8.1586 -18.9165
ltibia 67.0004
lfoot 5.52916 -3.59365
ltoes -11.2519
298
root -0.116831 2.28721 19.3398 -614.736 2.58869 -167.354
lowerback 61.5935 1.03507 15.9239
upperback 23.2345 -8.42766 6.61501
thorax 6.48477 -12.1655 2.30721
lowerneck -7.00725 -3.44484 -13.0071
upperneck -3.48906 -3.36548 9.41145
head 0.498175 -1.36545 4.86333
rclavicle 1.56046e-014 9.93923e-016
rhumerus -60.9214 41.5505 -107.5
rradius 45.2449
rwrist -22.5313
rhand -32.9135 -14.0714
rfingers 7.12502
rthumb -6.13073 -43.9627
lclavicle 1.56046e-014 9.93923e-016
lhumerus -35.407 -8.73881 81.8654
lradius 35.6399
lwrist 48.055
lhand -22.8187 -1.57129
lfingers 7.12502
lthumb 3.61816 28.3777
rfemur -71.0999 -56.7476 26.2615
rtibia 150.14
rfoot -4.76157 11.9788
rtoes -18.9568
lfemur -45.0107 7.96192 -18.8008
ltibia 66.0992
lfoot 5.65202 -3.40701
ltoes -10.1317
299
root -0.089023 2.23406 19.3725 -614.763 2.68341 -167.357
lowerback 61.603 1.12892 15.746
upperback 23.1242 -8.30128 6.62904
thorax 6.32658 -12.0907 2.39107
lowerneck -7.14541 -3.37112 -12.9689
upperneck -3.44141 -3.25081 9.57496
head 0.525336 -1.30377 4.91034
rclavicle 5.29761e-014 2.04748e-014
rhumerus -61.4318 41.4035 -107.545
rradius 45.8815
rwrist -22.4976
rhand -32.8819 -14.1111
rfingers 7.12502
rthumb -6.10015 -44.0032
lclavicle 5.29761e-014 2.04748e-014
lhumerus -36.0331 -8.70978 81.7299
lradius 36.3888
lwrist 48.0784
lhand -22.9803 -1.66554
lfingers 7.12502
lthumb 3.46211 28.2861
rfemur -72.7034 -55.0668 27.8772
rtibia 149.948
rfoot -3.14852 11.9931
rtoes -18.1163
lfemur -44.7077 7.85085 -18.7031
ltibia 65.2891
lfoot 5.85772 -3.28419
ltoes -9.46724
300
root -0.060081 2.18203 19.409 -614.822 2.76073 -167.381
lowerback 61.6761 1.25096 15.5567
upperback 23.0298 -8.18123 6.66276
thorax 6.19159 -12.0412 2.50084
lowerneck -7.39008 -3.30658 -12.9061
upperneck -3.38814 -3.13376 9.6898
head 0.569192 -1.23713 4.9373
rclavicle 3.58806e-014 -5.92378e-014
rhumerus -61.8907 41.3396 -107.575
rradius 46.5004
rwrist -22.4617
rhand -32.8669 -14.0923
rfingers 7.12502
rthumb -6.08568 -43.9849
lclavicle 3.58806e-014 -5.92378e-014
lhumerus -36.6399 -8.60515 81.5786
lradius 37.2102
lwrist 48.056
lhand -23.1012 -1.71297
lfingers 7.12502
lthumb 3.34538 28.2405
rfemur -74.0985 -53.3802 29.2484
rtibia 149.74
rfoot -1.65366 11.9402
rtoes -17.4324
lfemur -44.4351 7.74159 -18.5854
ltibia 64.5668
lfoot 6.18717 -3.16588
ltoes -8.74829
301
root -0.0309638 2.13087 19.4462 -614.914 2.86875 -167.421
lowerback 61.8302 1.36593 15.4005
upperback 22.9144 -8.05094 6.69073
thorax 6.03326 -11.9909 2.59644
lowerneck -7.68452 -3.27246 -12.8031
upperneck -3.29785 -3.05706 9.75662
head 0.634566 -1.19045 4.94066
rclavicle 1.89839e-014 -2.82274e-014
rhumerus -62.2199 41.1496 -107.51
rradius 47.0069
rwrist -22.2954
rhand -32.8416 -14.0441
rfingers 7.12502
rthumb -6.06126 -43.9374
lclavicle 1.89839e-014 -2.82274e-014
lhumerus -37.2923 -8.47587 81.4181
lradius 38.0689
lwrist 48.0088
lhand -23.2806 -1.75773
lfingers 7.12502
lthumb 3.17211 28.1984
rfemur -75.262 -51.5977 30.4188
rtibia 149.494
rfoot -0.235676 11.8929
rtoes -16.8764
lfemur -44.1783 7.64488 -18.4041
ltibia 63.9429
lfoot 6.51428 -3.05947
ltoes -8.38986
302
root -0.00193854 2.08141 19.4816 -615.031 2.92671 -167.477
lowerback 62.0183 1.48916 15.2367
upperback 22.8141 -7.93088 6.71539
thorax 5.89372 -11.9532 2.69233
lowerneck -8.04281 -3.25558 -12.5914
upperneck -3.21344 -3.00264 9.70862
head 0.706548 -1.15405 4.88929
rclavicle 7.95139e-015 -2.127e-014
rhumerus -62.4314 40.8805 -107.362
rradius 47.4465
rwrist -22.1271
rhand -32.8326 -13.8159
rfingers 7.12502
rthumb -6.05263 -43.7095
lclavicle 7.95139e-015 -2.127e-014
lhumerus -37.917 -8.28997 81.2212
lradius 38.9546
lwrist 47.8865
lhand -23.3774 -1.78362
lfingers 7.12502
lthumb 3.07868 28.1739
rfemur -76.2884 -50.117 31.3851
rtibia 149.261
rfoot 1.02731 11.8299
rtoes -16.4927
lfemur -43.9426 7.55658 -18.2725
ltibia 63.3917
lfoot 6.84015 -2.98046
ltoes -8.56338
303
root 0.0278491 2.03383 19.5143 -615.17 3.0207 -167.535
lowerback 62.268 1.59805 15.1182
upperback 22.7078 -7.81114 6.71664
thorax 5.74855 -11.9158 2.74785
lowerneck -8.4259 -3.24619 -12.2713
upperneck -3.16311 -2.96169 9.60652
head 0.771247 -1.12352 4.80308
rclavicle 2.21645e-014 -9.34288e-015
rhumerus -62.6388 40.6007 -107.279
rradius 47.8997
rwrist -21.9375
rhand -32.88 -13.6338
rfingers 7.12502
rthumb -6.0984 -43.5261
lclavicle 2.21645e-014 -9.34288e-015
lhumerus -38.5674 -8.15835 80.9992
lradius 39.9079
lwrist 47.771
lhand -23.5924 -1.8133
lfingers 7.12502
lthumb 2.87096 28.1471
rfemur -77.1631 -48.5115 32.2236
rtibia 149.004
rfoot 2.31694 11.767
rtoes -15.6047
lfemur -43.7186 7.56417 -18.0988
ltibia 62.8955
lfoot 7.17651 -2.99627
ltoes -9.11196
304
root 0.0585398 1.98921 19.5461 -615.309 3.08911 -167.638
lowerback 62.518 1.73539 14.9716
upperback 22.6321 -7.6967 6.69186
thorax 5.63531 -11.8852 2.78043
lowerneck -8.90655 -3.24557 -11.9601
upperneck -3.05453 -2.92513 9.5392
head 0.870077 -1.09247 4.72802
rclavicle 2.01766e-014 -1.64991e-014
rhumerus -62.8157 40.3842 -107.244
rradius 48.3749
rwrist -21.8552
rhand -32.9369 -13.3891
rfingers 7.12502
rthumb -6.15328 -43.2797
lclavicle 2.01766e-014 -1.64991e-014
lhumerus -39.2123 -8.06795 80.7202
lradius 40.9117
lwrist 47.7444
lhand -23.7446 -1.80996
lfingers 7.12502
lthumb 2.724 28.1524
rfemur -77.946 -46.8185 32.9121
rtibia 148.728
rfoot 3.5986 11.7725
rtoes -14.5577
lfemur -43.4917 7.67467 -17.9566
ltibia 62.4166
lfoot 7.58956 -3.0272
ltoes -9.57552
